<svg xmlns="http://www.w3.org/2000/svg" version="1.1" xmlns:xlink="http://www.w3.org/1999/xlink"
    xmlns:svgjs="http://svgjs.dev/svgjs" width="1500" height="515" viewBox="0 0 1500 515">
    <g transform="matrix(1,0,0,1,-0.9090909090909918,-0.17123501588235968)">
        <svg viewBox="0 0 396 136" data-background-color="#130070"
            preserveAspectRatio="xMidYMid meet" height="515" width="1500"
            xmlns="http://www.w3.org/2000/svg" xmlns:xlink="http://www.w3.org/1999/xlink">
            <g id="tight-bounds" transform="matrix(1,0,0,1,0.2400000000000091,0.04521934400000305)">
                <svg viewBox="0 0 395.52 135.909561312" height="135.909561312" width="395.52">
                    <g>
                        <svg viewBox="0 0 395.52 135.909561312" height="135.909561312"
                            width="395.52">
                            <g transform="matrix(1,0,0,1,0,83.997561312)">
                                <svg viewBox="0 0 395.52 51.912" height="51.912" width="395.52">
                                    <g id="textblocktransform">
                                        <svg viewBox="0 0 395.52 51.912" height="51.912"
                                            width="395.52" id="textblock">
                                            <g>
                                                <svg viewBox="0 0 395.52 51.912" height="51.912"
                                                    width="395.52">
                                                    <g transform="matrix(1,0,0,1,0,0)">
                                                        <svg width="395.52"
                                                            viewBox="1 -37.45 359.96 47.25"
                                                            height="51.912"
                                                            data-palette-color="#f8fafc">
                                                            <path
                                                                d="M14.9 0L14.9 0 7.15-0.15Q5.4-0.15 3.88 0.05 2.35 0.25 2 0.25 1.65 0.25 1.33-0.03 1-0.3 1-0.68 1-1.05 1.4-1.23 1.8-1.4 2.33-1.48 2.85-1.55 3.45-2.08 4.05-2.6 4.35-3.6 4.65-4.6 4.85-5.8L4.85-5.8 8.25-30.8Q8.35-31.6 8.35-31.7L8.35-31.7Q8.35-32.45 7.65-33.08 6.95-33.7 6.1-33.75L6.1-33.75Q3.8-33.9 3.8-34.83 3.8-35.75 5.35-35.75L5.35-35.75Q6.2-35.75 7.68-35.48 9.15-35.2 10.4-35.2 11.65-35.2 13.88-35.45 16.1-35.7 18.2-35.7L18.2-35.7Q27.7-35.7 32.18-31.73 36.65-27.75 36.65-21.53 36.65-15.3 32.75-9.3L32.75-9.3Q31.65-7.55 29.58-5.58 27.5-3.6 26.2-2.85L26.2-2.85Q21.5 0 14.9 0ZM10.23-16.45Q8.6-3.65 8.6-3.15 8.6-2.65 9.1-2.18 9.6-1.7 11-1.7L11-1.7 15.4-1.7Q17.6-1.7 20.6-2.75L20.6-2.75Q25.9-4.65 29-9.9L29-9.9Q31.1-13.45 31.8-18.65L31.8-18.65Q32.05-20.25 32.05-21.7 32.05-23.15 31.7-24.68 31.35-26.2 30.35-27.88 29.35-29.55 27.8-30.78 26.25-32 23.63-32.8 21-33.6 17.78-33.6 14.55-33.6 13.65-33.2 12.75-32.8 12.2-30.85L12.2-30.85Q11.85-29.25 10.23-16.45ZM46.15 0.6Q41.7 0.6 39.97-1.5 38.25-3.6 38.25-7.05 38.25-10.5 39.75-13.6 41.25-16.7 43.97-19.25 46.7-21.8 50.85-21.8L50.85-21.8Q52.65-21.8 53.92-20.75 55.2-19.7 55.2-18.28 55.2-16.85 54.6-15.73 54-14.6 53.1-13.85L53.1-13.85Q51.5-12.5 50.35-12.05L50.35-12.05Q47.45-10.75 42.5-10.7L42.5-10.7Q41.65-10.7 41.65-8.22 41.65-5.75 43.45-4.08 45.25-2.4 48.85-2.4L48.85-2.4Q50.95-2.4 53.35-4L53.35-4Q54.1-4.55 54.25-4.55L54.25-4.55Q54.85-4.55 54.85-4.05L54.85-4.05Q54.85-3 51.97-1.2 49.1 0.6 46.15 0.6L46.15 0.6ZM45-17.95Q44-16.9 43.17-15.05 42.35-13.2 42.35-12.38 42.35-11.55 42.8-11.55L42.8-11.55Q46.35-11.55 49.05-13.55 51.75-15.55 51.75-17.95L51.75-17.95Q51.75-19.2 50.87-19.75 50-20.3 49.1-20.3L49.1-20.3Q47.25-20.3 45-17.95L45-17.95ZM62.57 0.6Q60.45 0.6 58.67-0.18 56.9-0.95 56.9-2.73 56.9-4.5 58.5-4.5L58.5-4.5Q59.35-4.5 59.9-3.95 60.45-3.4 60.7-2.78 60.95-2.15 61.6-1.6 62.25-1.05 63.37-1.05 64.5-1.05 65.4-1.45 66.3-1.85 66.65-2.45L66.65-2.45Q67.25-3.5 67.25-4.3 67.25-5.1 67.05-5.78 66.84-6.45 66.12-7.35 65.4-8.25 65.15-8.5L65.15-8.5Q63.55-10.1 62.57-11.08 61.6-12.05 61.12-12.65 60.65-13.25 60.45-13.7L60.45-13.7Q59.9-14.95 59.9-16.2L59.9-16.2Q59.9-18.7 61.82-20.28 63.75-21.85 66.7-21.85L66.7-21.85Q71.34-21.85 71.34-19.25L71.34-19.25Q71.34-18.55 70.9-18.1L70.9-18.1Q70.3-17.55 69.42-17.55 68.55-17.55 67.52-18.95 66.5-20.35 65.5-20.35L65.5-20.35Q62.85-20.35 62.85-17.7L62.85-17.7Q62.85-16.15 65.4-13.8L65.4-13.8Q66.75-12.55 66.87-12.4 67-12.25 67.72-11.48 68.45-10.7 68.72-10.33 69-9.95 69.45-9.2L69.45-9.2Q70.25-7.95 70.25-6.55 70.25-5.15 69.9-4.15 69.55-3.15 68.77-2.02 68-0.9 66.34-0.15 64.7 0.6 62.57 0.6ZM78.09-8.8L78.09-8.8 77.09-1.45Q76.94 0.05 75.34 0.05 73.74 0.05 73.74-1.15L73.74-1.15Q73.74-2.2 75.09-10.3L75.09-10.3 76.09-16.95Q76.79-21.8 77.32-25.88 77.84-29.95 78.22-32.08 78.59-34.2 78.59-34.3L78.59-34.3Q78.59-35.25 77.34-35.25L77.34-35.25 75.29-35.35Q74.54-35.35 74.54-35.95L74.54-35.95Q74.54-36.7 75.29-36.7L75.29-36.7Q77.64-36.8 79.32-37.13 80.99-37.45 81.39-37.45L81.39-37.45Q82.29-37.45 82.29-36.7L82.29-36.7Q82.29-36.5 81.94-34.4L81.94-34.4 81.49-31.5Q80.39-25.05 79.49-18.15L79.49-18.15 79.04-14.7Q79.04-14.55 78.89-14L78.89-14Q78.59-12.55 78.59-11.93 78.59-11.3 78.59-11.1L78.59-11.1Q78.69-10.75 79.14-10.75 79.59-10.75 82.64-13.15 85.69-15.55 86.79-17.35L86.79-17.35Q87.09-17.9 87.54-19.18 87.99-20.45 88.54-21.05 89.09-21.65 89.99-21.65L89.99-21.65Q91.74-21.65 91.74-19.8L91.74-19.8Q91.74-18.5 89.82-16.8 87.89-15.1 85.97-13.93 84.04-12.75 84.04-12.7L84.04-12.7 86.54-8.2Q86.74-7.85 87.09-7.2 87.44-6.55 87.69-6.2L87.69-6.2 88.19-5.3Q89.14-3.75 89.44-3.55 89.74-3.35 89.94-3.35L89.94-3.35Q90.94-3.35 92.09-4.75 93.24-6.15 93.44-6.15L93.44-6.15Q93.89-6.15 93.89-5 93.89-3.85 92.14-1.85 90.39 0.15 89.24 0.15 88.09 0.15 86.87-1.58 85.64-3.3 84.69-5.4L84.69-5.4Q82.09-10.9 81.24-10.9L81.24-10.9 80.04-10.25Q79.29-9.75 78.99-9.65 78.69-9.55 78.49-9.4 78.29-9.25 78.27-9.25 78.24-9.25 78.17-9.05 78.09-8.85 78.09-8.8ZM107.69-18.45L107.69-18.45 103.64-18.7Q102.99-18.7 102.79-18.5 102.59-18.3 102.49-18.18 102.39-18.05 102.34-17.75 102.29-17.45 102.24-17.25 102.19-17.05 102.14-16.55 102.09-16.05 101.99-15.3 101.89-14.55 101.49-12L101.49-12Q100.44-5.85 100.44-5 100.44-4.15 100.97-3.48 101.49-2.8 101.84-2.7 102.19-2.6 102.94-2.6 103.69-2.6 104.69-3.15 105.69-3.7 106.29-4.25 106.89-4.8 107.19-4.8L107.19-4.8Q107.74-4.8 107.74-4.1L107.74-4.1Q107.74-3 105.14-1.2 102.54 0.6 100.39 0.6L100.39 0.6Q99.09 0.6 98.14-0.45 97.19-1.5 97.19-4.15 97.19-6.8 98.24-12.35 99.29-17.9 99.29-18.15L99.29-18.15Q99.29-18.65 97.82-18.7 96.34-18.75 96.34-19.5L96.34-19.5Q96.34-19.9 96.87-20.23 97.39-20.55 98.47-21.18 99.54-21.8 100.29-22.6 101.04-23.4 101.59-24.05 102.14-24.7 102.39-24.95L102.39-24.95Q102.84-25.5 103.34-25.5 103.84-25.5 103.84-24.9L103.84-24.9Q103.84-24.6 103.39-23.08 102.94-21.55 102.94-21.23 102.94-20.9 103.22-20.85 103.49-20.8 104.69-20.8L104.69-20.8 107.59-20.85Q108.89-20.85 108.89-19.95 108.89-19.05 108.64-18.75 108.39-18.45 107.69-18.45ZM118.49 0.5Q115.09 0.5 112.91-1.8 110.74-4.1 110.74-8.83 110.74-13.55 113.96-17.65 117.19-21.75 122.54-21.75L122.54-21.75Q126.09-21.75 127.96-19.23 129.84-16.7 129.84-13.18 129.84-9.65 128.56-6.65 127.29-3.65 124.59-1.58 121.89 0.5 118.49 0.5ZM121.81-20.25Q119.94-20.25 118.19-18.57 116.44-16.9 115.51-13.7 114.59-10.5 114.59-7.65 114.59-4.8 115.81-2.9 117.04-1 118.94-1 120.84-1 122.31-2.35 123.79-3.7 124.54-5.7L124.54-5.7Q126.14-9.85 126.14-13.35 126.14-16.85 124.91-18.55 123.69-20.25 121.81-20.25ZM139.59 9.8L134.59 9.75 131.89 9.8 131.44 9.8Q130.59 9.8 130.59 9.13 130.59 8.45 131.61 8 132.64 7.55 132.76 7.2 132.89 6.85 134.34-4.5 135.79-15.85 136.34-18.5L136.34-18.5 136.34-18.6Q136.34-18.85 136.09-18.85 135.84-18.85 134.84-18.4 133.84-17.95 133.54-17.95L133.54-17.95Q132.89-17.95 132.89-18.55L132.89-18.55 132.89-18.75Q132.89-19.2 133.24-19.4L133.24-19.4Q133.84-19.65 134.41-19.85 134.99-20.05 135.31-20.18 135.64-20.3 135.91-20.35 136.19-20.4 136.34-20.55 136.49-20.7 136.61-20.7 136.74-20.7 136.79-20.95 136.84-21.2 136.86-21.28 136.89-21.35 136.96-21.8 137.04-22.25 137.14-22.78 137.24-23.3 137.41-24.4 137.59-25.5 137.66-25.88 137.74-26.25 137.94-26.8L137.94-26.8Q138.19-27.55 138.99-27.98 139.79-28.4 140.51-28.4 141.24-28.4 141.24-27.6 141.24-26.8 140.56-24.55 139.89-22.3 139.89-21.6L139.89-21.6 139.89-21.4Q139.89-21.15 140.06-21.15 140.24-21.15 140.74-21.2L140.74-21.2Q141.99-21.4 144.39-21.4L144.39-21.4Q153.24-21.4 153.24-14.7L153.24-14.7Q153.24-10.55 151.29-7.25L151.29-7.25Q150.89-6.45 150.64-6.1 150.39-5.75 150.14-5.33 149.89-4.9 149.71-4.67 149.54-4.45 149.21-4.08 148.89-3.7 148.59-3.4L148.59-3.4Q144.84 0 140.34 0L140.34 0 137.64-0.2Q137.19-0.2 137.04 0.05L137.04 0.05Q136.89 0.4 136.74 1.88 136.59 3.35 136.44 4.2L136.44 4.2Q136.14 6 136.14 6.45L136.14 6.45Q136.14 7.55 137.19 7.98 138.24 8.4 139.26 8.55 140.29 8.7 140.29 9.15L140.29 9.15Q140.29 9.8 139.59 9.8L139.59 9.8ZM141.19-20.15L141.19-20.15 139.99-20Q139.59-20 139.14-16.15L139.14-16.15 138.49-10.6Q137.49-3.1 137.49-2.73 137.49-2.35 137.69-2.1 137.89-1.85 138.59-1.6 139.29-1.35 140.34-1.35L140.34-1.35Q143.89-1.35 146.74-5.28 149.59-9.2 149.59-12.85L149.59-12.85Q149.59-14.8 148.86-16.23 148.14-17.65 147.16-18.38 146.19-19.1 144.89-19.5L144.89-19.5Q142.99-20.15 141.19-20.15ZM175.58 0.1L171.23 0 167.48 0.1Q166.48 0.1 166.48-0.45L166.48-0.45Q166.48-1.1 167.73-1.5L167.73-1.5Q169.23-2.1 169.98-3.25L169.98-3.25Q171.18-5.2 171.98-6.7 172.78-8.2 173.68-9.8 174.58-11.4 175.98-13.98 177.38-16.55 178.98-19.4L178.98-19.4Q187.88-35.4 188.18-35.65 188.48-35.9 188.88-35.9 189.28-35.9 189.46-35.55 189.63-35.2 190.03-33.8 190.43-32.4 190.58-31.85L190.58-31.85 191.03-30.2Q191.93-26.9 195.36-16.43 198.78-5.95 199.36-4.42 199.93-2.9 200.38-2.38 200.83-1.85 202.28-1.4L202.28-1.4Q203.08-1.15 203.08-0.4L203.08-0.4Q203.08 0.1 201.53 0.1L201.53 0.1 198.28-0.05 193.63 0.2Q192.28 0.2 192.28-0.3 192.28-0.8 192.81-1.1 193.33-1.4 193.93-1.5 194.53-1.6 195.06-2.05 195.58-2.5 195.58-3.3 195.58-4.1 195.18-5.68 194.78-7.25 194.23-9.05 193.68-10.85 193.48-11.7L193.48-11.7Q193.18-12.9 191.68-12.9L191.68-12.9 185.63-12.85Q181.83-12.85 180.58-12.93 179.33-13 178.93-13L178.93-13Q177.58-13 177.18-12.25L177.18-12.25Q174.38-7.3 173.66-5.45 172.93-3.6 172.93-3.45L172.93-3.45Q172.93-2.2 173.78-1.78 174.63-1.35 175.48-1.23 176.33-1.1 176.33-0.6L176.33-0.6Q176.33 0.1 175.88 0.1L175.88 0.1 175.58 0.1ZM179.98-15.2L181.53-15.2 191.08-15.25Q191.78-15.25 191.88-15.6L191.88-15.6Q191.88-15.75 191.88-16.18 191.88-16.6 189.71-23.2 187.53-29.8 187.08-29.8L187.08-29.8Q186.83-29.8 182.93-22.8 179.03-15.8 179.03-15.5 179.03-15.2 179.98-15.2L179.98-15.2ZM208.38-17.9Q207.53-17.9 206.6-16.5 205.68-15.1 205.2-15.1 204.73-15.1 204.73-16.32 204.73-17.55 206.48-19.65 208.23-21.75 209.58-21.75 210.93-21.75 211.38-20.43 211.83-19.1 211.83-17.8 211.83-16.5 211.93-16.5 212.03-16.5 212.23-16.8L212.23-16.8Q213.23-18.1 214.43-19L214.43-19Q218.08-21.85 220.53-21.85L220.53-21.85Q224.73-21.85 224.73-15.6L224.73-15.6Q224.73-13.6 224.3-9.65 223.88-5.7 223.88-5.1L223.88-5.1Q223.88-3.3 224.83-3.3L224.83-3.3Q225.73-3.3 226.83-4.4L226.83-4.4Q226.98-4.55 227.2-4.9 227.43-5.25 227.53-5.4L227.53-5.4Q227.93-5.75 228.38-5.75 228.83-5.75 228.83-5.15L228.83-5.15Q228.83-3.7 226.35-1.7 223.88 0.3 222.23 0.3L222.23 0.3Q221.48 0.3 220.93-0.63 220.38-1.55 220.38-3.28 220.38-5 220.9-9.75 221.43-14.5 221.43-15.2 221.43-15.9 221.28-16.68 221.13-17.45 220.25-18.38 219.38-19.3 217.8-19.3 216.23-19.3 214.68-17.1L214.68-17.1Q213.98-16.1 213.68-15.65 213.38-15.2 213.13-14.43 212.88-13.65 212.83-13.2L212.83-13.2Q212.43-10.95 211.95-8.33 211.48-5.7 211.25-4.23 211.03-2.75 211-2.33 210.98-1.9 210.95-1.63 210.93-1.35 210.88-0.9L210.88-0.9Q210.78 0.1 209.38 0.1 207.98 0.1 207.65-0.15 207.33-0.4 207.33-1.35 207.33-2.3 208.43-7.65 209.53-13 209.53-14.68 209.53-16.35 209.15-17.13 208.78-17.9 208.38-17.9L208.38-17.9ZM229.93 6.25L229.93 6.25Q229.93 5.6 230.4 5.1 230.88 4.6 231.68 4.6 232.48 4.6 233.58 5.43 234.68 6.25 235.88 6.25L235.88 6.25Q237.83 6.25 239.95 2.98 242.08-0.3 242.08-2.4 242.08-4.5 238.9-11.13 235.73-17.75 233.93-17.75L233.93-17.75Q232.68-17.75 232.15-16.82 231.63-15.9 231.4-14.95 231.18-14 230.58-14L230.58-14Q230.08-14 230.08-15.18 230.08-16.35 230.43-17.73 230.78-19.1 231.75-20.33 232.73-21.55 234.25-21.55 235.78-21.55 237.65-19.33 239.53-17.1 240.83-14.45 242.13-11.8 243.13-9.58 244.13-7.35 244.28-7.35L244.28-7.35Q244.78-7.35 245.43-10.45 246.08-13.55 246.08-16.05L246.08-16.05Q246.08-16.8 245.45-18 244.83-19.2 244.83-19.9 244.83-20.6 245.25-21.15 245.68-21.7 246.53-21.7 247.38-21.7 247.93-20.95 248.48-20.2 248.48-18.57 248.48-16.95 247.4-12.23 246.33-7.5 244.33-2.45L244.33-2.45Q239.73 9.2 234.08 9.2L234.08 9.2Q229.93 9.2 229.93 6.25ZM250.42-12.4L250.42-12.4Q250.42-15.85 252.57-18.65 254.72-21.45 256.47-21.45L256.47-21.45Q257.57-21.45 258.07-20.2 258.57-18.95 258.57-17.25 258.57-15.55 258.27-12 257.97-8.45 257.97-5.85L257.97-5.85Q257.97-4.7 258.6-3.75 259.22-2.8 259.92-2.8L259.92-2.8Q261.57-2.8 263.32-5.1 265.07-7.4 266.25-10.23 267.42-13.05 268.27-19.05L268.27-19.05Q268.42-20.1 268.52-20.45L268.52-20.45Q268.77-21.35 270.1-21.35 271.42-21.35 271.42-20.1L271.42-20.1Q271.42-19.4 270.75-15.95 270.07-12.5 270.07-10.05 270.07-7.6 270.47-5.75 270.87-3.9 271.32-3.28 271.77-2.65 272.67-2.65L272.67-2.65Q274.42-2.65 276.27-5 278.12-7.35 279.2-10.08 280.27-12.8 280.27-14.88 280.27-16.95 279.8-18.15 279.32-19.35 279.32-19.88 279.32-20.4 279.97-20.93 280.62-21.45 281.22-21.45L281.22-21.45Q282.67-21.45 282.67-19.3 282.67-17.15 281.85-13.75 281.02-10.35 279.92-8.3L279.92-8.3Q277.67-4 274.85-1.75 272.02 0.5 270.22 0.5L270.22 0.5Q267.37 0.5 267.27-8.15L267.27-8.15Q267.27-9.1 267.12-9.1L267.12-9.1Q267.07-9.1 266.55-8.1 266.02-7.1 265.15-5.7 264.27-4.3 263.2-2.88 262.12-1.45 260.72-0.45 259.32 0.55 257.97 0.55L257.97 0.55Q254.92 0.55 254.92-7.2L254.92-7.2Q254.92-7.45 254.22-7.63 253.52-7.8 252.67-8.03 251.82-8.25 251.12-9.38 250.42-10.5 250.42-12.4ZM252.07-12.15L252.07-12.15Q252.07-9.1 254.22-9.1L254.22-9.1Q254.77-9.1 254.97-9.65 255.17-10.2 255.4-12.23 255.62-14.25 255.62-15.68 255.62-17.1 254.9-17.1 254.17-17.1 253.12-15.48 252.07-13.85 252.07-12.15ZM287.97-35.25L287.97-35.25 285.92-35.2Q285.27-35.2 285.27-35.77 285.27-36.35 287.4-36.52 289.52-36.7 290.87-37.02 292.22-37.35 292.57-37.35L292.57-37.35Q293.17-37.35 293.17-36.7L293.17-36.7Q293.17-36.6 291.67-28.43 290.17-20.25 290.17-17.55L290.17-17.55Q290.17-17 290.35-17 290.52-17 291.17-17.68 291.82-18.35 292.65-19.13 293.47-19.9 294.85-20.58 296.22-21.25 297.62-21.25L297.62-21.25Q302.07-21.25 302.07-15.6L302.07-15.6Q302.07-14.1 301.47-10.35 300.87-6.6 300.87-5.5L300.87-5.5Q300.87-3.2 302.07-3.2L302.07-3.2Q302.72-3.2 303.67-3.78 304.62-4.35 305.05-4.88 305.47-5.4 305.77-5.78 306.07-6.15 306.22-6.15L306.22-6.15Q306.72-6.15 306.72-5.75L306.72-5.75Q306.72-4.05 304.32-1.95 301.92 0.15 300.22 0.15L300.22 0.15Q297.77 0.15 297.77-4.5L297.77-4.5Q297.77-6.05 298.22-9.63 298.67-13.2 298.67-14.7L298.67-14.7Q298.67-18.6 295.82-18.6L295.82-18.6Q294.12-18.6 292.42-17.6L292.42-17.6Q289.92-16.1 289.12-11.3L289.12-11.3Q288.82-9.45 288.45-6.15 288.07-2.85 287.9-1.7 287.72-0.55 287.3-0.25 286.87 0.05 286.02 0.05L286.02 0.05Q284.37 0.05 284.37-1.15L284.37-1.15Q284.37-1.85 285.02-5.58 285.67-9.3 285.82-10.28 285.97-11.25 286.92-17.65 287.87-24.05 288.62-29 289.37-33.95 289.37-34.1L289.37-34.1Q289.37-35.25 287.97-35.25ZM316.67 0.6Q312.22 0.6 310.49-1.5 308.77-3.6 308.77-7.05 308.77-10.5 310.27-13.6 311.77-16.7 314.49-19.25 317.22-21.8 321.37-21.8L321.37-21.8Q323.17-21.8 324.44-20.75 325.72-19.7 325.72-18.28 325.72-16.85 325.12-15.73 324.52-14.6 323.62-13.85L323.62-13.85Q322.02-12.5 320.87-12.05L320.87-12.05Q317.97-10.75 313.02-10.7L313.02-10.7Q312.17-10.7 312.17-8.22 312.17-5.75 313.97-4.08 315.77-2.4 319.37-2.4L319.37-2.4Q321.47-2.4 323.87-4L323.87-4Q324.62-4.55 324.77-4.55L324.77-4.55Q325.37-4.55 325.37-4.05L325.37-4.05Q325.37-3 322.49-1.2 319.62 0.6 316.67 0.6L316.67 0.6ZM315.52-17.95Q314.52-16.9 313.69-15.05 312.87-13.2 312.87-12.38 312.87-11.55 313.32-11.55L313.32-11.55Q316.87-11.55 319.57-13.55 322.27-15.55 322.27-17.95L322.27-17.95Q322.27-19.2 321.39-19.75 320.52-20.3 319.62-20.3L319.62-20.3Q317.77-20.3 315.52-17.95L315.52-17.95ZM343.82-18.4L343.82-18.4Q343.57-16.5 342.72-16.5L342.72-16.5Q342.27-16.5 341.97-17.03 341.67-17.55 341.22-18.07 340.77-18.6 340.02-18.6L340.02-18.6Q338.57-18.6 337.57-15.6 336.57-12.6 336.27-9.95L336.27-9.95 336.02-8.3Q335.12-1.25 334.72-0.45L334.72-0.45Q334.22 0.2 333.22 0.2L333.22 0.2 332.97 0.2Q331.47 0.2 331.47-1.1L331.47-1.1Q331.47-1.9 332.54-7 333.62-12.1 333.62-14.2L333.62-14.2Q333.62-17.6 331.92-17.6L331.92-17.6Q331.02-17.6 330.42-16.88 329.82-16.15 329.52-15.23 329.22-14.3 329.04-14.13 328.87-13.95 328.62-13.95L328.62-13.95Q328.02-13.95 328.02-14.8L328.02-14.8Q328.02-18 329.57-19.7L329.57-19.7Q331.32-21.7 332.62-21.7 333.92-21.7 334.57-19.95L334.57-19.95Q335.82-16.65 335.97-16.65L335.97-16.65Q336.02-16.65 336.92-17.93 337.82-19.2 339.34-20.5 340.87-21.8 342.14-21.8 343.42-21.8 343.89-21.33 344.37-20.85 344.37-20.35 344.37-19.85 344.09-19.15 343.82-18.45 343.82-18.4ZM351.91 0.6Q347.46 0.6 345.74-1.5 344.01-3.6 344.01-7.05 344.01-10.5 345.51-13.6 347.01-16.7 349.74-19.25 352.46-21.8 356.61-21.8L356.61-21.8Q358.41-21.8 359.69-20.75 360.96-19.7 360.96-18.28 360.96-16.85 360.36-15.73 359.76-14.6 358.86-13.85L358.86-13.85Q357.26-12.5 356.11-12.05L356.11-12.05Q353.21-10.75 348.26-10.7L348.26-10.7Q347.41-10.7 347.41-8.22 347.41-5.75 349.21-4.08 351.01-2.4 354.61-2.4L354.61-2.4Q356.71-2.4 359.11-4L359.11-4Q359.86-4.55 360.01-4.55L360.01-4.55Q360.61-4.55 360.61-4.05L360.61-4.05Q360.61-3 357.74-1.2 354.86 0.6 351.91 0.6L351.91 0.6ZM350.76-17.95Q349.76-16.9 348.94-15.05 348.11-13.2 348.11-12.38 348.11-11.55 348.56-11.55L348.56-11.55Q352.11-11.55 354.81-13.55 357.51-15.55 357.51-17.95L357.51-17.95Q357.51-19.2 356.64-19.75 355.76-20.3 354.86-20.3L354.86-20.3Q353.01-20.3 350.76-17.95L350.76-17.95Z"
                                                                opacity="1"
                                                                transform="matrix(1,0,0,1,0,0)"
                                                                fill="#f8fafc"
                                                                class="wordmark-text-0"
                                                                data-fill-palette-color="primary"
                                                                id="text-0"></path>
                                                        </svg>
                                                    </g>
                                                </svg>
                                            </g>
                                        </svg>
                                    </g>
                                </svg>
                            </g>
                            <g transform="matrix(1,0,0,1,159.97111467415124,0)">
                                <svg viewBox="0 0 75.5777706516975 71.742384" height="71.742384"
                                    width="75.5777706516975">
                                    <g>
                                        <svg xmlns="http://www.w3.org/2000/svg" xmlns:xlink="http://www.w3.org/1999/xlink" version="1.1" x="7.9999999999999964" y="0" viewBox="16.079 10.175 57.841000985712746 69.65099999999998" enable-background="new 0 0 90 90" xml:space="preserve" height="71.742384" width="59.57777065169751" class="icon-icon-0" data-fill-palette-color="accent" id="icon-0"><g fill="#f8fafc" data-fill-palette-color="accent"><path d="M72.23 10.175L17.698 24.52c-0.901 0.035-1.619 0.773-1.619 1.677v33.289c0 0.928 0.76 1.654 1.61 1.677l21.146 3.343v3.064h0.969v-2.912l8.995 1.422c0.292 1.913 1.243 10.742-5.437 12.782l-7.656-0.067-4.794-2.34-0.422 0.868 4.895 2.389 8.04 0.114H43.5l0.066-0.021c7.185-2.128 6.567-10.982 6.226-13.568l22.363 3.534 0.075 0.006c0.931 0 1.69-0.755 1.69-1.686V11.858C73.921 10.93 73.161 10.175 72.23 10.175zM72.957 68.091c0 0.388-0.309 0.703-0.693 0.722l-22.639-3.576-0.008-0.058-10.782-1.68v0.033l-21.07-3.328c-0.4 0-0.726-0.322-0.726-0.719V26.196c0-0.395 0.325-0.715 0.726-0.715l54.517-14.341c0.375 0.027 0.676 0.338 0.676 0.718V68.091z" fill="#f8fafc" data-fill-palette-color="accent"></path><path
                                            d="M19.951 27.601l-0.376 0.089 0.126 29.235 48.691 7.108 0.551 0.079-0.125-48.126L19.951 27.601zM20.66 56.092l-0.116-27.643 47.313-11.244 0.118 45.793L20.66 56.092z"
                                            fill="#f8fafc" data-fill-palette-color="accent"></path><rect
                                            x="39.063" y="71.923"
                                            transform="matrix(0.5203 -0.854 0.854 0.5203 -45.3695 69.9107)"
                                            width="0.963" height="6.834" fill="#f8fafc"
                                            data-fill-palette-color="accent"></rect><rect x="38.555"
                                            y="40.25"
                                            transform="matrix(-0.4902 -0.8716 0.8716 -0.4902 44.1479 107.2885)"
                                            width="29.792" height="0.966" fill="#f8fafc"
                                            data-fill-palette-color="accent"></rect><rect x="47.924"
                                            y="35.711"
                                            transform="matrix(0.4958 0.8684 -0.8684 0.4958 59.7555 -30.5404)"
                                            width="16.511" height="0.963" fill="#f8fafc"
                                            data-fill-palette-color="accent"></rect></g></svg>
                                    </g>
                                </svg>
                            </g>
                            <g>
                                <rect width="159.97111467415124" height="4.681477733184001"
                                    y="66.060906266816" x="235.54888532584874" fill="#f8fafc"
                                    data-fill-palette-color="accent"></rect>
                                <rect width="159.97111467415124" height="4.681477733184001"
                                    y="66.060906266816" x="0" fill="#f8fafc"
                                    data-fill-palette-color="accent"></rect>
                                <rect width="159.97111467415124" height="4.681477733184001"
                                    y="56.697950800448" x="235.54888532584874" fill="#f8fafc"
                                    data-fill-palette-color="accent"></rect>
                                <rect width="159.97111467415124" height="4.681477733184001"
                                    y="56.697950800448" x="0" fill="#f8fafc"
                                    data-fill-palette-color="accent"></rect>
                            </g>
                        </svg>
                    </g>
                    <defs></defs>
                </svg>
                <rect width="395.52" height="135.909561312" fill="none" stroke="none"
                    visibility="hidden"></rect>
            </g>
        </svg>
    </g>
</svg>